<svg xmlns="http://www.w3.org/2000/svg" version="1.1" xmlns:xlink="http://www.w3.org/1999/xlink" xmlns:svgjs="http://svgjs.dev/svgjs" width="1000" height="1000" viewBox="0 0 1000 1000"><rect width="1000" height="1000" fill="#000000"></rect><g transform="matrix(0.7,0,0,0.7,149.57575757575756,282.1265587044535)"><svg viewBox="0 0 396 247" data-background-color="#ffffff" preserveAspectRatio="xMidYMid meet" height="623" width="1000" xmlns="http://www.w3.org/2000/svg" xmlns:xlink="http://www.w3.org/1999/xlink"><g id="tight-bounds" transform="matrix(1,0,0,1,0.2400000000000091,-0.09999999999999432)"><svg viewBox="0 0 395.52 247.2" height="247.2" width="395.52"><g><svg></svg></g><g><svg viewBox="0 0 395.52 247.2" height="247.2" width="395.52"><g transform="matrix(1,0,0,1,75.54432,94.59251241157784)"><svg viewBox="0 0 244.43135999999998 58.0149751768443" height="58.0149751768443" width="244.43135999999998"><g><svg viewBox="0 0 244.43135999999998 58.0149751768443" height="58.0149751768443" width="244.43135999999998"><g><svg viewBox="0 0 332.25004531287647 78.85844979683426" height="58.0149751768443" width="244.43135999999998"><g><svg viewBox="0 0 244.43135999999998 78.85844979683426" height="78.85844979683426" width="244.43135999999998"><g id="textblocktransform"><svg viewBox="0 0 244.43135999999998 78.85844979683426" height="78.85844979683426" width="244.43135999999998" id="textblock"><g><svg viewBox="0 0 244.43135999999998 52.05694383536015" height="52.05694383536015" width="244.43135999999998"><g transform="matrix(1,0,0,1,0,0)"><svg width="244.43135999999998" viewBox="-0.10000000149011612 -32.90999984741211 156.5800018310547 33.349998474121094" height="52.05694383536015" data-palette-color="#ff4136"><path d="M8.64 0L0.05 0-0.1-2.05 2.39-2.73 12.35-27.64 15.63-29.54 26.46-2.73 28.91-2.05 28.76 0 17.87 0 17.77-2.05 20.8-2.73 17.97-9.72 17.43-11.28 12.26-23.97 13.48-24.27 8.74-11.33 8.2-9.86 5.71-2.73 8.74-2.05 8.64 0ZM7.18-8.79L7.18-8.79 7.18-11.62Q8.11-11.57 9.57-11.5 11.04-11.43 13.28-11.43L13.28-11.43Q15.48-11.43 16.99-11.5 18.51-11.57 19.38-11.62L19.38-11.62 19.38-8.84Q17.97-8.84 16.43-8.89 14.89-8.94 13.28-8.94L13.28-8.94Q11.67-8.94 10.18-8.89 8.69-8.84 7.18-8.79ZM41.26 0L29.88 0 29.73-1.95 33.01-2.69Q33.05-2.88 33.1-3.44 33.15-4 33.18-5.05 33.2-6.1 33.2-7.76L33.2-7.76 33.25-11.23Q33.25-13.04 33.15-14.53 33.05-16.02 32.86-16.99L32.86-16.99 29.59-17.68 29.59-19.48 37.2-21.44 38.13-20.7Q37.99-19.19 37.91-17.68 37.84-16.16 37.84-14.16L37.84-14.16 37.84-8.01Q37.84-6.01 37.91-4.54 37.99-3.08 38.13-2.69L38.13-2.69 41.4-1.95 41.26 0ZM35.59-26.46L35.59-26.46Q34.13-26.46 33.18-27.39 32.22-28.32 32.22-29.69L32.22-29.69Q32.22-31.01 33.18-31.96 34.13-32.91 35.59-32.91L35.59-32.91Q37.06-32.91 37.96-31.96 38.86-31.01 38.86-29.69L38.86-29.69Q38.86-28.32 37.96-27.39 37.06-26.46 35.59-26.46ZM53.36 0.44L53.36 0.44Q51.26 0.44 48.92-0.1 46.58-0.63 45.06-1.51L45.06-1.51 44.77-8.15 47.21-8.35 48.68-3.76Q49.85-3.03 51.24-2.64 52.63-2.25 54.1-2.25L54.1-2.25Q56.44-2.25 57.78-3.32 59.13-4.39 59.13-6.25L59.13-6.25Q59.13-8.01 58.1-9.11 57.08-10.21 55.46-11.01 53.85-11.82 52.02-12.6 50.19-13.38 48.58-14.43 46.97-15.48 45.94-17.02 44.92-18.55 44.92-20.9L44.92-20.9Q44.92-23.34 46.28-25.22 47.65-27.1 50.12-28.15 52.58-29.2 55.81-29.2L55.81-29.2Q57.03-29.2 58.25-29.05 59.47-28.91 60.57-28.64 61.66-28.37 62.54-27.98L62.54-27.98 62.98-21.53 60.54-21.34 59.13-25.68Q57.56-26.61 55.27-26.61L55.27-26.61Q52.92-26.61 51.51-25.46 50.09-24.32 50.09-22.41L50.09-22.41Q50.09-20.7 51.12-19.56 52.14-18.41 53.78-17.55 55.41-16.7 57.27-15.92 59.13-15.14 60.76-14.11 62.4-13.09 63.42-11.6 64.45-10.11 64.45-7.86L64.45-7.86Q64.45-5.47 63.03-3.59 61.62-1.71 59.13-0.63 56.64 0.44 53.36 0.44ZM78.36 0.39L78.36 0.39Q75.43 0.39 73.09-0.93 70.74-2.25 69.38-4.64 68.01-7.03 68.01-10.21L68.01-10.21Q68.01-13.67 69.47-16.21 70.94-18.75 73.31-20.17 75.68-21.58 78.41-21.53L78.41-21.53Q82.41-21.48 84.61-18.92 86.81-16.36 86.81-11.96L86.81-11.96 86.81-10.99 72.06-10.99 72.06-13.28 83.1-13.28 82.46-12.45 82.46-13.72Q82.46-16.31 81.29-17.8 80.12-19.29 78.02-19.29L78.02-19.29Q76.7-19.29 75.53-18.51 74.36-17.72 73.63-16.16 72.89-14.6 72.89-12.26L72.89-12.26 72.89-11.52Q72.89-7.71 74.85-5.52 76.8-3.32 79.92-3.32L79.92-3.32Q81.58-3.32 82.95-3.96 84.32-4.59 85.59-6.15L85.59-6.15 86.91-4.93Q85.54-2.25 83.32-0.93 81.1 0.39 78.36 0.39ZM100.62 0L89.78 0 89.64-1.9 92.67-2.69Q92.71-2.93 92.76-3.54 92.81-4.15 92.84-5.18 92.86-6.2 92.86-7.76L92.86-7.76 92.91-11.52Q92.91-13.13 92.81-14.58 92.71-16.02 92.52-16.99L92.52-16.99 89.39-17.68 89.39-19.48 96.62-21.44 97.65-20.65 97.35-17.97 97.5-17.92Q99.16-19.78 100.87-20.65 102.58-21.53 104.53-21.53L104.53-21.53Q106.44-21.53 108.05-20.58 109.66-19.63 110.66-17.72 111.66-15.82 111.66-12.94L111.66-12.94 111.66-7.71Q111.66-6.01 111.73-4.57 111.81-3.13 111.9-2.69L111.9-2.69 114.93-1.9 114.83 0 104.19 0 104.04-1.9 106.87-2.69Q106.97-3.08 107.02-3.74 107.07-4.39 107.09-5.35 107.12-6.3 107.12-7.47L107.12-7.47 107.12-12.35Q107.12-14.4 106.44-15.65 105.75-16.89 104.7-17.46 103.65-18.02 102.48-18.02L102.48-18.02Q100.97-18.02 99.7-17.31 98.43-16.6 97.5-15.33L97.5-15.33 97.5-8.01Q97.5-5.96 97.57-4.54 97.65-3.13 97.74-2.69L97.74-2.69 100.77-1.9 100.62 0ZM125.43 0.39L125.43 0.39Q123.57 0.39 121.69-0.05 119.81-0.49 118.49-1.17L118.49-1.17 118.25-6.59 120.89-6.59 121.86-3.08Q123.57-1.9 125.77-1.9L125.77-1.9Q127.38-1.9 128.33-2.66 129.28-3.42 129.28-4.64L129.28-4.64Q129.28-5.86 128.38-6.76 127.48-7.67 124.79-8.74L124.79-8.74Q121.28-10.16 119.86-11.62 118.44-13.09 118.44-15.33L118.44-15.33Q118.44-17.14 119.57-18.53 120.69-19.92 122.64-20.73 124.6-21.53 127.18-21.53L127.18-21.53Q128.6-21.53 130.07-21.29 131.53-21.04 132.56-20.61L132.56-20.61 133.09-15.33 130.55-15.33 129.38-18.65Q128.89-18.95 128.21-19.12 127.53-19.29 126.79-19.29L126.79-19.29Q125.13-19.29 124.13-18.53 123.13-17.77 123.13-16.6L123.13-16.6Q123.13-15.28 124.26-14.4 125.38-13.53 128.21-12.26L128.21-12.26Q131.43-10.84 132.75-9.4 134.07-7.96 134.07-5.86L134.07-5.86Q134.07-3.13 131.65-1.37 129.24 0.39 125.43 0.39ZM147.93 0.39L147.93 0.39Q145 0.39 142.66-0.93 140.32-2.25 138.95-4.64 137.58-7.03 137.58-10.21L137.58-10.21Q137.58-13.67 139.05-16.21 140.51-18.75 142.88-20.17 145.25-21.58 147.98-21.53L147.98-21.53Q151.99-21.48 154.18-18.92 156.38-16.36 156.38-11.96L156.38-11.96 156.38-10.99 141.64-10.99 141.64-13.28 152.67-13.28 152.04-12.45 152.04-13.72Q152.04-16.31 150.86-17.8 149.69-19.29 147.59-19.29L147.59-19.29Q146.27-19.29 145.1-18.51 143.93-17.72 143.2-16.16 142.47-14.6 142.47-12.26L142.47-12.26 142.47-11.52Q142.47-7.71 144.42-5.52 146.37-3.32 149.5-3.32L149.5-3.32Q151.16-3.32 152.52-3.96 153.89-4.59 155.16-6.15L155.16-6.15 156.48-4.93Q155.11-2.25 152.89-0.93 150.67 0.39 147.93 0.39Z" opacity="1" transform="matrix(1,0,0,1,0,0)" fill="#ffffff" class="wordmark-text-0" data-fill-palette-color="primary" id="text-0"></path></svg></g></svg></g><g transform="matrix(1,0,0,1,24.443135999999996,64.34633890823663)"><svg viewBox="0 0 195.545088 14.512110888597636" height="14.512110888597636" width="195.545088"><g transform="matrix(1,0,0,1,0,0)"><svg width="195.545088" viewBox="1.7999999523162842 -36 610.3500366210938 45.29999923706055" height="14.512110888597636" data-palette-color="#0074d9"><path d="M18.55-34.8Q23.45-34.8 26.43-32.83 29.4-30.85 29.4-26.8L29.4-26.8Q29.4-25.75 29.2-24.6L29.2-24.6 24.3-24.6Q24.5-25.6 24.5-26L24.5-26Q24.5-28.1 22.75-29.23 21-30.35 18.05-30.35L18.05-30.35Q14.45-30.35 12.15-29.05 9.85-27.75 9.85-25.2L9.85-25.2Q9.85-23.7 10.85-22.73 11.85-21.75 13.35-21.2 14.85-20.65 17.45-19.95L17.45-19.95Q20.9-19.05 23.03-18.15 25.15-17.25 26.68-15.43 28.2-13.6 28.2-10.55L28.2-10.55Q28.2-4.75 24.28-2.13 20.35 0.5 13.55 0.5L13.55 0.5Q8.25 0.5 5.03-1.55 1.8-3.6 1.8-8L1.8-8Q1.8-8.7 1.9-9.5 2-10.3 2.15-10.75L2.15-10.75 7.05-10.75Q6.9-10.6 6.83-9.9 6.75-9.2 6.75-8.75L6.75-8.75Q6.75-6.35 8.68-5.15 10.6-3.95 13.9-3.95L13.9-3.95Q18.2-3.95 20.68-5.53 23.15-7.1 23.15-10.05L23.15-10.05Q23.15-11.65 22.15-12.65 21.15-13.65 19.68-14.2 18.2-14.75 15.5-15.5L15.5-15.5Q12.1-16.4 9.98-17.3 7.85-18.2 6.35-20.05 4.85-21.9 4.85-24.95L4.85-24.95Q4.85-29.8 8.65-32.3 12.45-34.8 18.55-34.8L18.55-34.8ZM49.3-26.05Q53.2-26.05 55.6-23.53 58-21 58-16L58-16Q58-12.15 56.77-8.35 55.55-4.55 52.82-2.02 50.1 0.5 45.9 0.5L45.9 0.5Q43.3 0.5 41.5-0.5 39.7-1.5 38.75-3.25L38.75-3.25 37 9.05 32.3 9.05 37.15-25.55 40.85-25.55 40.85-22.05Q44.2-26.05 49.3-26.05L49.3-26.05ZM47.9-22.3Q44.4-22.3 42.1-19.35 39.8-16.4 39.8-9.65L39.8-9.65Q39.8-6.2 41.2-4.73 42.6-3.25 45.25-3.25L45.25-3.25Q49.75-3.25 51.55-7.03 53.35-10.8 53.35-15.85L53.35-15.85Q53.35-19.3 51.92-20.8 50.5-22.3 47.9-22.3L47.9-22.3ZM76.65-26.05Q80.9-26.05 83.42-23.7 85.95-21.35 85.95-17.2L85.95-17.2 85.95-16.65Q85.95-15.6 85.3-11.7L85.3-11.7 67.45-11.7Q67.34-10.6 67.34-10.1L67.34-10.1Q67.34-6.95 68.8-5.1 70.25-3.25 73.4-3.25L73.4-3.25Q77.05-3.25 78.59-5.25 80.15-7.25 80.55-9.5L80.55-9.5 85-9.5Q84.34-4.8 81.17-2.15 78 0.5 72.9 0.5L72.9 0.5 72.7 0.5Q68.09 0.5 65.37-2.15 62.65-4.8 62.65-9.65L62.65-9.65Q62.65-14.1 64.17-17.85 65.7-21.6 68.77-23.83 71.84-26.05 76.3-26.05L76.3-26.05 76.65-26.05ZM75.9-22.3Q73-22.3 70.97-20.55 68.95-18.8 68.09-15.35L68.09-15.35 81.2-15.35Q81.34-16.35 81.34-17.15L81.34-17.15Q81.34-19.65 79.84-20.98 78.34-22.3 75.9-22.3L75.9-22.3ZM102.59-26.05Q105.09-26.05 106.94-25.03 108.79-24 109.74-22.3L109.74-22.3 110.09-22.3 111.64-25.55 114.89-25.55Q113.99-19.85 113.12-13.28 112.24-6.7 111.99-4.6L111.99-4.6Q111.99-3.95 112.34-3.6 112.69-3.25 113.19-3.25L113.19-3.25Q113.74-3.25 114.42-3.48 115.09-3.7 115.54-3.95L115.54-3.95 115.09-0.5Q114.44-0.1 113.44 0.2 112.44 0.5 111.24 0.5L111.24 0.5Q107.44 0.5 107.44-3.25L107.44-3.25Q103.99 0.5 99.19 0.5L99.19 0.5Q95.24 0.5 92.87-2.02 90.49-4.55 90.49-9.5L90.49-9.5Q90.49-14.7 92.12-18.45 93.74-22.2 96.49-24.13 99.24-26.05 102.59-26.05L102.59-26.05ZM103.24-22.3Q98.84-22.3 96.99-18.43 95.14-14.55 95.14-9.65L95.14-9.65Q95.14-6.2 96.54-4.73 97.94-3.25 100.59-3.25L100.59-3.25Q104.59-3.25 106.64-6.8 108.69-10.35 108.69-15.9L108.69-15.9Q108.69-19.3 107.27-20.8 105.84-22.3 103.24-22.3L103.24-22.3ZM125.89-36L130.59-36 127.14-11.3 140.54-25.55 145.69-25.55 134.09-13.15 142.74 0 137.04 0 130.74-9.5 126.29-5.5 125.54 0 120.84 0 125.89-36ZM176.94-34.3Q182.44-34.3 185.81-31.18 189.19-28.05 189.19-22.1L189.19-22.1Q189.19-20.95 188.53-15.4L188.53-15.4Q187.63-7.75 183.33-3.88 179.03 0 172.08 0L172.08 0 160.19 0 165.03-34.3 176.94-34.3ZM176.28-29.85L169.28-29.85 165.73-4.45 172.73-4.45Q176.98-4.45 179.91-7.15 182.83-9.85 183.58-15.4L183.58-15.4Q184.23-20.65 184.23-21.6L184.23-21.6Q184.23-25.8 182.11-27.83 179.98-29.85 176.28-29.85L176.28-29.85ZM198.53-36L203.43-36 202.83-31.65 197.93-31.65 198.53-36ZM197.18-25.55L201.88-25.55 198.28 0 193.58 0 197.18-25.55ZM218.68-26.05Q221.18-26.05 223.03-25.03 224.88-24 225.83-22.3L225.83-22.3 226.18-22.3 227.73-25.55 230.98-25.55Q230.08-19.85 229.2-13.28 228.33-6.7 228.08-4.6L228.08-4.6Q228.08-3.95 228.43-3.6 228.78-3.25 229.28-3.25L229.28-3.25Q229.83-3.25 230.5-3.48 231.18-3.7 231.63-3.95L231.63-3.95 231.18-0.5Q230.53-0.1 229.53 0.2 228.53 0.5 227.33 0.5L227.33 0.5Q223.53 0.5 223.53-3.25L223.53-3.25Q220.08 0.5 215.28 0.5L215.28 0.5Q211.33 0.5 208.95-2.02 206.58-4.55 206.58-9.5L206.58-9.5Q206.58-14.7 208.2-18.45 209.83-22.2 212.58-24.13 215.33-26.05 218.68-26.05L218.68-26.05ZM219.33-22.3Q214.93-22.3 213.08-18.43 211.23-14.55 211.23-9.65L211.23-9.65Q211.23-6.2 212.63-4.73 214.03-3.25 216.68-3.25L216.68-3.25Q220.68-3.25 222.73-6.8 224.78-10.35 224.78-15.9L224.78-15.9Q224.78-19.3 223.35-20.8 221.93-22.3 219.33-22.3L219.33-22.3ZM249.43-26.05Q255.23-26.05 257.38-21.5L257.38-21.5 259.63-25.55 261.43-25.55 258.08-1.7Q257.43 3.25 254.33 6.28 251.23 9.3 245.48 9.3L245.48 9.3Q240.78 9.3 238.33 6.95 235.88 4.6 235.88 0.95L235.88 0.95 240.53 0.95Q240.53 3.05 241.98 4.3 243.43 5.55 245.98 5.55L245.98 5.55Q248.93 5.55 250.88 3.75 252.83 1.95 253.23-0.75L253.23-0.75 253.78-4.75Q252.38-3.05 250.28-2.02 248.18-1 245.58-1L245.58-1Q241.78-1 239.4-3.45 237.03-5.9 237.03-10.4L237.03-10.4Q237.03-14.55 238.43-18.13 239.83-21.7 242.63-23.88 245.43-26.05 249.43-26.05L249.43-26.05ZM249.83-22.3Q246.38-22.3 244.1-19.65 241.83-17 241.83-10.85L241.83-10.85Q241.83-4.75 247.33-4.75L247.33-4.75Q250.08-4.75 251.88-6.45 253.68-8.15 254.48-10.78 255.28-13.4 255.28-16.3L255.28-16.3Q255.28-19.55 253.88-20.93 252.48-22.3 249.83-22.3L249.83-22.3ZM282.32-26.05Q285.92-26.05 288.07-24.3 290.22-22.55 290.22-19L290.22-19Q290.22-17.9 288.92-8.9L288.92-8.9 287.67 0 282.97 0 284.17-8.35 284.77-12.8Q285.37-17.1 285.37-17.8L285.37-17.8Q285.37-20.1 284.15-21.2 282.92-22.3 280.72-22.3L280.72-22.3Q278.97-22.3 277.27-21.35 275.57-20.4 274.37-18.78 273.17-17.15 272.92-15.2L272.92-15.2 270.77 0 266.07 0 269.67-25.55 273.17-25.55 273.17-21.8Q277.07-26.05 282.32-26.05L282.32-26.05ZM309.62-26.05Q314.17-26.05 317-23.53 319.82-21 319.82-16.2L319.82-16.2Q319.82-11.7 318.47-7.95 317.12-4.2 314-1.85 310.87 0.5 305.87 0.5L305.87 0.5Q301.32 0.5 298.5-2.02 295.67-4.55 295.67-9.35L295.67-9.35Q295.67-13.8 297.02-17.57 298.37-21.35 301.5-23.7 304.62-26.05 309.62-26.05L309.62-26.05ZM309.07-22.3Q304.47-22.3 302.45-18.63 300.42-14.95 300.42-10L300.42-10Q300.42-6.6 302.07-4.93 303.72-3.25 306.42-3.25L306.42-3.25Q309.47-3.25 311.4-5.08 313.32-6.9 314.17-9.68 315.02-12.45 315.02-15.5L315.02-15.5Q315.02-18.95 313.4-20.63 311.77-22.3 309.07-22.3L309.07-22.3ZM337.97-26.05Q342.02-26.05 344.39-24.3 346.77-22.55 346.77-19.9L346.77-19.9Q346.77-18.8 346.57-18.2L346.57-18.2 341.92-18.2Q341.92-18.45 341.97-18.7 342.02-18.95 342.02-19.15L342.02-19.15Q342.02-20.55 340.79-21.43 339.57-22.3 336.82-22.3L336.82-22.3Q333.42-22.3 332.07-21.13 330.72-19.95 330.72-18.55L330.72-18.55Q330.72-17.1 332.17-16.45 333.62-15.8 336.77-15.15L336.77-15.15Q339.67-14.55 341.47-13.95 343.27-13.35 344.54-12.03 345.82-10.7 345.82-8.4L345.82-8.4Q345.82-3.7 342.49-1.6 339.17 0.5 333.72 0.5L333.72 0.5 332.97 0.5Q328.32 0.5 325.94-1.38 323.57-3.25 323.57-6.05L323.57-6.05Q323.57-6.9 323.69-7.4 323.82-7.9 323.82-8L323.82-8 328.47-8 328.37-7.2 328.37-6.85Q328.37-5.05 330.02-4.15 331.67-3.25 334.37-3.25L334.37-3.25Q337.22-3.25 339.09-4.33 340.97-5.4 340.97-7.35L340.97-7.35Q340.97-9.05 339.42-9.78 337.87-10.5 334.62-11.15L334.62-11.15Q331.77-11.75 330.04-12.33 328.32-12.9 327.09-14.2 325.87-15.5 325.87-17.75L325.87-17.75Q325.87-21.65 328.92-23.85 331.97-26.05 337.52-26.05L337.52-26.05 337.97-26.05ZM365.27-26.05Q369.52-26.05 372.04-23.7 374.57-21.35 374.57-17.2L374.57-17.2 374.57-16.65Q374.57-15.6 373.92-11.7L373.92-11.7 356.07-11.7Q355.97-10.6 355.97-10.1L355.97-10.1Q355.97-6.95 357.42-5.1 358.87-3.25 362.02-3.25L362.02-3.25Q365.67-3.25 367.22-5.25 368.77-7.25 369.17-9.5L369.17-9.5 373.62-9.5Q372.97-4.8 369.79-2.15 366.62 0.5 361.52 0.5L361.52 0.5 361.32 0.5Q356.72 0.5 353.99-2.15 351.27-4.8 351.27-9.65L351.27-9.65Q351.27-14.1 352.79-17.85 354.32-21.6 357.39-23.83 360.47-26.05 364.92-26.05L364.92-26.05 365.27-26.05ZM364.52-22.3Q361.62-22.3 359.59-20.55 357.57-18.8 356.72-15.35L356.72-15.35 369.82-15.35Q369.97-16.35 369.97-17.15L369.97-17.15Q369.97-19.65 368.47-20.98 366.97-22.3 364.52-22.3L364.52-22.3ZM396.61-34.3L419.11-34.3 417.81-29.85 400.86-29.85 399.46-19.75 414.81-19.75 414.16-15.3 398.81-15.3 397.31-4.45 414.56-4.45 414.56 0 391.76 0 396.61-34.3ZM451.66-26.05Q454.91-26.05 456.83-24.35 458.76-22.65 458.76-19.2L458.76-19.2Q458.76-17.95 457.46-8.85L457.46-8.85 456.21 0 451.51 0 452.71-8.5Q452.71-8.3 453.36-13.35L453.36-13.35Q453.91-17.75 453.91-18.05L453.91-18.05Q453.91-20.45 452.96-21.38 452.01-22.3 450.06-22.3L450.06-22.3Q448.46-22.3 446.96-21.35 445.46-20.4 444.38-18.78 443.31-17.15 443.06-15.2L443.06-15.2 440.91 0 436.21 0 437.41-8.55Q438.56-17.05 438.66-18.05L438.66-18.05Q438.66-22.3 434.76-22.3L434.76-22.3Q433.16-22.3 431.66-21.35 430.16-20.4 429.08-18.78 428.01-17.15 427.76-15.2L427.76-15.2 425.61 0 420.91 0 424.51-25.55 428.01-25.55 428.01-21.8Q431.61-26.05 436.36-26.05L436.36-26.05Q441.71-26.05 443.06-21.8L443.06-21.8Q445.11-24.2 447.21-25.13 449.31-26.05 451.66-26.05L451.66-26.05ZM480.01-26.05Q483.91-26.05 486.31-23.53 488.71-21 488.71-16L488.71-16Q488.71-12.15 487.48-8.35 486.26-4.55 483.53-2.02 480.81 0.5 476.61 0.5L476.61 0.5Q474.01 0.5 472.21-0.5 470.41-1.5 469.46-3.25L469.46-3.25 467.71 9.05 463.01 9.05 467.86-25.55 471.56-25.55 471.56-22.05Q474.91-26.05 480.01-26.05L480.01-26.05ZM478.61-22.3Q475.11-22.3 472.81-19.35 470.51-16.4 470.51-9.65L470.51-9.65Q470.51-6.2 471.91-4.73 473.31-3.25 475.96-3.25L475.96-3.25Q480.46-3.25 482.26-7.03 484.06-10.8 484.06-15.85L484.06-15.85Q484.06-19.3 482.63-20.8 481.21-22.3 478.61-22.3L478.61-22.3ZM507.31-26.05Q511.86-26.05 514.68-23.53 517.5-21 517.5-16.2L517.5-16.2Q517.5-11.7 516.15-7.95 514.81-4.2 511.68-1.85 508.56 0.5 503.56 0.5L503.56 0.5Q499 0.5 496.18-2.02 493.36-4.55 493.36-9.35L493.36-9.35Q493.36-13.8 494.7-17.57 496.06-21.35 499.18-23.7 502.31-26.05 507.31-26.05L507.31-26.05ZM506.75-22.3Q502.16-22.3 500.13-18.63 498.11-14.95 498.11-10L498.11-10Q498.11-6.6 499.75-4.93 501.41-3.25 504.11-3.25L504.11-3.25Q507.16-3.25 509.08-5.08 511-6.9 511.86-9.68 512.71-12.45 512.71-15.5L512.71-15.5Q512.71-18.95 511.08-20.63 509.45-22.3 506.75-22.3L506.75-22.3ZM556.4-25.55L561-25.55 549.1 0 544.2 0 540.8-17.85 540.6-17.85 532.3 0 527.4 0 522.6-25.55 527.4-25.55 530.75-6.85 530.95-6.85 539.6-25.55 544.2-25.55 547.55-6.85 547.75-6.85 556.4-25.55ZM576.6-26.05Q580.85-26.05 583.38-23.7 585.9-21.35 585.9-17.2L585.9-17.2 585.9-16.65Q585.9-15.6 585.25-11.7L585.25-11.7 567.4-11.7Q567.3-10.6 567.3-10.1L567.3-10.1Q567.3-6.95 568.75-5.1 570.2-3.25 573.35-3.25L573.35-3.25Q577-3.25 578.55-5.25 580.1-7.25 580.5-9.5L580.5-9.5 584.95-9.5Q584.3-4.8 581.13-2.15 577.95 0.5 572.85 0.5L572.85 0.5 572.65 0.5Q568.05 0.5 565.32-2.15 562.6-4.8 562.6-9.65L562.6-9.65Q562.6-14.1 564.13-17.85 565.65-21.6 568.72-23.83 571.8-26.05 576.25-26.05L576.25-26.05 576.6-26.05ZM575.85-22.3Q572.95-22.3 570.92-20.55 568.9-18.8 568.05-15.35L568.05-15.35 581.15-15.35Q581.3-16.35 581.3-17.15L581.3-17.15Q581.3-19.65 579.8-20.98 578.3-22.3 575.85-22.3L575.85-22.3ZM605.75-26.05Q608.8-26.05 610.47-24.23 612.15-22.4 612.15-19.45L612.15-19.45Q612.15-18.7 611.95-17.53 611.75-16.35 611.6-16.15L611.6-16.15 607.45-16.15Q607.65-17.5 607.65-17.9L607.65-17.9Q607.65-19.55 606.57-20.93 605.5-22.3 603.4-22.3L603.4-22.3Q600.75-22.3 599.22-20.2 597.7-18.1 597.3-15.25L597.3-15.25 595.15 0 590.45 0 594.05-25.55 597.55-25.55 597.55-21.75Q597.75-22.25 598.65-23.25 599.55-24.25 601.35-25.15 603.15-26.05 605.75-26.05L605.75-26.05Z" opacity="1" transform="matrix(1,0,0,1,0,0)" fill="#ffffff" class="slogan-text-1" data-fill-palette-color="secondary" id="text-1"></path></svg></g></svg></g></svg></g></svg></g><g transform="matrix(1,0,0,1,256.72075507287644,15.61941610046972)"><svg viewBox="0 0 75.52929024 47.61961759589482" height="47.61961759589482" width="75.52929024"><g><svg xmlns="http://www.w3.org/2000/svg" xmlns:xlink="http://www.w3.org/1999/xlink" version="1.1" viewBox="2.0000038146972656 18.995956420898438 92 58.004051208496094" x="0" y="0" height="47.61961759589482" width="75.52929024" class="icon-icon-0" data-fill-palette-color="accent" id="icon-0"><path d="M52.736 77c-0.9 0-1.692-0.6-1.924-1.476l-8.4-30.996-8.864 17.384c-0.296 0.584-0.86 0.98-1.504 1.08-0.652 0.08-1.296-0.144-1.744-0.62l-8.676-9.36h-17.624c-1.104 0-2-0.896-2-2s0.896-2 2-2h18.492c0.556 0 1.088 0.232 1.468 0.64l7.324 7.9 9.916-19.456c0.376-0.736 1.14-1.18 1.988-1.08 0.824 0.084 1.508 0.668 1.724 1.464l7.572 27.92 9.52-45.812c0.192-0.916 0.992-1.58 1.924-1.584 0.968-0.092 1.752 0.616 1.976 1.528l6.752 27.652 6.584-3c0.256-0.116 0.54-0.18 0.828-0.18h11.932c1.1 0 2 0.896 2 2s-0.9 2-2 2h-11.508l-8.392 3.82c-0.54 0.248-1.164 0.236-1.696-0.02-0.54-0.26-0.928-0.752-1.076-1.328l-5.22-21.396-9.416 45.328c-0.188 0.916-0.972 1.576-1.9 1.592-0.02 0-0.04 0-0.056 0z" fill="#ffffff" data-fill-palette-color="accent"></path></svg></g></svg></g></svg></g></svg></g></svg></g><g><path d="M245.816 0c68.262 0 123.6 55.338 123.6 123.6 0 68.262-55.338 123.6-123.6 123.6-56.642 0-104.385-38.101-118.999-90.072h1.796c14.564 51.005 61.523 88.345 117.203 88.345 67.309 0 121.873-54.564 121.873-121.873 0-67.309-54.564-121.873-121.873-121.873-55.68 0-102.64 37.34-117.203 88.345h-1.796c14.613-51.971 62.356-90.072 118.999-90.072z" fill="#ffffff" stroke="transparent" data-fill-palette-color="tertiary"></path></g></svg></g><defs></defs></svg><rect width="395.52" height="247.2" fill="none" stroke="none" visibility="hidden"></rect></g></svg></g></svg>